Coordinates
version=1
nRows=19
nColumns=24
inDegrees=yes

Units are S.I. units (second, meters, Newtons, ...)
Angles are in degrees.

endheader
time	pelvis_tilt	pelvis_list	pelvis_rotation	pelvis_tx	pelvis_ty	pelvis_tz	hip_flexion_r	hip_adduction_r	hip_rotation_r	knee_angle_r	ankle_angle_r	subtalar_angle_r	mtp_angle_r	hip_flexion_l	hip_adduction_l	hip_rotation_l	knee_angle_l	ankle_angle_l	subtalar_angle_l	mtp_angle_l	lumbar_extension	lumbar_bending	lumbar_rotation
      1.03766667	     -3.10577094	     -3.27548568	      5.36658648	      0.51248466	      1.02890856	      0.30422873	     12.53641852	      8.63347657	     -1.30265818	    -18.50506485	      5.08251739	     -8.47936074	     10.30834768	     17.09548686	     -4.68440864	     -3.08187990	    -54.14352594	      7.09474431	     -3.22513409	      0.95014222	      4.38304266	     -0.39786881	      0.39900533
      1.04183333	     -3.10046008	     -3.23343858	      5.19975058	      0.51714062	      1.02923984	      0.30469307	     12.14897119	      8.63968886	     -1.26343820	    -18.32781536	      5.20660623	     -8.27177323	     10.23414343	     17.60200233	     -4.57141979	     -3.12850159	    -53.53965955	      7.31773356	     -3.20997055	      1.02088401	      4.30486002	     -0.39876538	      0.56064721
      1.04600000	     -3.07252262	     -3.21749945	      5.04382651	      0.52181646	      1.02957865	      0.30513652	     11.72933797	      8.67094627	     -1.25004475	    -18.12631721	      5.34035890	     -8.03506639	     10.16281597	     18.07777765	     -4.49166975	     -3.16127324	    -52.90039820	      7.52038375	     -3.19975677	      1.08997735	      4.22067740	     -0.37753792	      0.74984785
      1.05016667	     -3.06499530	     -3.17896254	      4.88213129	      0.52646664	      1.02984792	      0.30557489	     11.34199763	      8.67422804	     -1.22779235	    -17.95354908	      5.49838568	     -7.80240383	     10.08946664	     18.55933436	     -4.38193988	     -3.18651649	    -52.21557088	      7.67849340	     -3.20549161	      1.16009599	      4.14622633	     -0.38051927	      0.94564030
      1.05433333	     -3.05438536	     -3.16431489	      4.72332732	      0.53112335	      1.03009528	      0.30600492	     10.94796588	      8.70203354	     -1.20972647	    -17.76763637	      5.64725239	     -7.56707924	     10.01337655	     19.03035624	     -4.30076341	     -3.19840883	    -51.49868363	      7.82141688	     -3.23640770	      1.23075411	      4.07672705	     -0.35079593	      1.13442258
      1.05850000	     -3.07164041	     -3.14292811	      4.56823598	      0.53579822	      1.03026645	      0.30644500	     10.57564843	      8.72270616	     -1.17530920	    -17.56500800	      5.77312831	     -7.40154162	      9.97373511	     19.51894480	     -4.21423451	     -3.21125316	    -50.74666095	      7.94370963	     -3.28204940	      1.26776587	      4.05775473	     -0.36235111	      1.24205345
      1.06266667	     -3.06603036	     -3.11624185	      4.40394120	      0.54043227	      1.03044901	      0.30684003	     10.20253499	      8.72818707	     -1.17841282	    -17.41664149	      5.98125474	     -7.09859731	      9.87025644	     19.96347173	     -4.11410039	     -3.20055376	    -49.94308347	      8.00678131	     -3.36221503	      1.35379333	      3.98530160	     -0.32925089	      1.52131600
      1.06683333	     -3.11563505	     -3.08669695	      4.21752436	      0.54507424	      1.03051298	      0.30728710	      9.88327777	      8.73923207	     -1.09549694	    -17.25855132	      6.12515271	     -6.92147076	      9.81271053	     20.45341784	     -4.02028744	     -3.21394462	    -49.11135263	      8.07924110	     -3.45754716	      1.39901822	      3.97228433	     -0.32744689	      1.63670828
      1.07100000	     -3.12815533	     -3.06708753	      4.04392206	      0.54972312	      1.03060772	      0.30770373	      9.51973059	      8.75703432	     -1.04642341	    -17.08866761	      6.29551376	     -6.69899565	      9.74620953	     20.89136335	     -3.93858457	     -3.20659928	    -48.24272244	      8.10217696	     -3.58468930	      1.44526856	      3.92754525	     -0.31058878	      1.81959933
      1.07516667	     -3.16114674	     -3.04349906	      3.86604292	      0.55437043	      1.03064044	      0.30812522	      9.18283272	      8.77013913	     -0.98475690	    -16.92885923	      6.46223029	     -6.50380553	      9.68401901	     21.33692987	     -3.85339381	     -3.19397680	    -47.34039868	      8.10129369	     -3.71661325	      1.48304998	      3.90944388	     -0.30161687	      1.97953883
      1.07933333	     -3.22132481	     -3.01174266	      3.67987310	      0.55902388	      1.03061957	      0.30854352	      8.87816421	      8.77178643	     -0.90765441	    -16.78011012	      6.63331988	     -6.31368341	      9.62185739	     21.79225851	     -3.75875315	     -3.17631240	    -46.39578500	      8.05603373	     -3.88044593	      1.51407719	      3.92220172	     -0.30407405	      2.14474663
      1.08350000	     -3.25712523	     -2.97665686	      3.49062017	      0.56368326	      1.03061051	      0.30896143	      8.54569210	      8.77118597	     -0.82346768	    -16.63007202	      6.80954540	     -6.12291911	      9.55924813	     22.20356527	     -3.66702658	     -3.15881417	    -45.41451729	      7.98087957	     -4.06564572	      1.53885930	      3.90641157	     -0.30566584	      2.31466521
      1.08766667	     -3.30836222	     -2.95162320	      3.29718849	      0.56834045	      1.03054580	      0.30938063	      8.23282049	      8.78047669	     -0.72572014	    -16.48409089	      6.98153680	     -5.94669622	      9.49740910	     22.62017240	     -3.58864534	     -3.13157768	    -44.40597857	      7.87934880	     -4.26359413	      1.55698318	      3.91143077	     -0.29909576	      2.47915433
      1.09183333	     -3.37073688	     -2.91477513	      3.09607242	      0.57300746	      1.03044128	      0.30980655	      7.93300863	      8.77738062	     -0.61180511	    -16.34561325	      7.15843566	     -5.78432223	      9.43567876	     23.02959421	     -3.50300390	     -3.10965156	    -43.36220130	      7.74496135	     -4.47932330	      1.56810655	      3.92805915	     -0.30703440	      2.64478675
      1.09600000	     -3.42488068	     -2.89177081	      2.90757855	      0.57768264	      1.03031176	      0.31020248	      7.62550572	      8.78435371	     -0.52470269	    -16.20581801	      7.34100573	     -5.60899621	      9.34987680	     23.42018752	     -3.42714213	     -3.05556737	    -42.29167161	      7.58701793	     -4.73655591	      1.57777017	      3.95400762	     -0.29550557	      2.84910531
      1.10016667	     -3.51427784	     -2.85843630	      2.69283580	      0.58235803	      1.03011322	      0.31063959	      7.36046803	      8.78375758	     -0.38078572	    -16.08212464	      7.51710689	     -5.45027359	      9.25330746	     23.82847284	     -3.35226327	     -3.02044523	    -41.18755770	      7.39389660	     -4.99252594	      1.58023350	      3.99980455	     -0.30386198	      3.02886354
      1.10433333	     -3.56892656	     -2.82241316	      2.45498519	      0.58704116	      1.02994918	      0.31112155	      7.05650503	      8.78781155	     -0.19024969	    -15.96031040	      7.68498438	     -5.34400405	      9.20196277	     24.17864632	     -3.30099392	     -3.03330057	    -40.05201743	      7.20351987	     -5.19138443	      1.57213932	      4.00002597	     -0.30842007	      3.14250495
      1.10850000	     -3.64019869	     -2.78020211	      2.22532111	      0.59174167	      1.02974586	      0.31158307	      6.76948913	      8.78039017	     -0.01070767	    -15.83835383	      7.85547197	     -5.22712741	      9.14767464	     24.52835185	     -3.23480846	     -3.01198329	    -38.87786045	      6.95933787	     -5.47421281	      1.55691811	      4.03344707	     -0.32899374	      3.30748896
      1.11266667	     -3.71440322	     -2.75542974	      2.01078002	      0.59645864	      1.02949862	      0.31199140	      6.48378066	      8.78359732	      0.13417616	    -15.70854195	      8.02945884	     -5.08748524	      9.05719187	     24.87435480	     -3.17733899	     -2.94872224	    -37.68874934	      6.70377794	     -5.81179647	      1.53127996	      4.08598921	     -0.31757051	      3.54071348
